<?xml version="1.0" standalone="no"?>
<!DOCTYPE svg PUBLIC "-//W3C//DTD SVG 20010904//EN"
 "http://www.w3.org/TR/2001/REC-SVG-20010904/DTD/svg10.dtd">
<svg version="1.0" xmlns="http://www.w3.org/2000/svg"
 width="700.000000pt" height="700.000000pt" viewBox="0 0 700.000000 700.000000"
 preserveAspectRatio="xMidYMid meet">
<metadata>
Created by potrace 1.14, written by Peter Selinger 2001-2017
</metadata>
<g transform="translate(0.000000,700.000000) scale(0.100000,-0.100000)"
fill="#000000" stroke="none">
<path d="M3225 6419 c-371 -38 -719 -138 -1037 -300 l-87 -44 100 -165 c56
-91 163 -271 239 -400 76 -129 183 -311 238 -403 l100 -168 21 35 c23 37 81
66 132 66 75 0 139 -55 164 -143 12 -42 55 -482 55 -563 0 -17 215 -393 239
-417 5 -5 12 146 16 335 16 776 20 849 42 898 38 85 112 127 189 110 74 -17
127 -82 139 -169 5 -41 35 -1134 35 -1288 0 -50 4 -67 20 -83 28 -28 85 -27
104 3 10 14 39 218 85 595 42 342 77 587 86 610 62 146 235 165 312 35 26 -45
28 -54 26 -158 0 -60 -29 -438 -62 -838 -43 -514 -58 -733 -51 -747 16 -30 61
-60 89 -60 46 0 85 35 208 186 164 203 193 228 275 243 130 22 243 3 294 -50
24 -25 29 -39 32 -97 4 -91 -15 -127 -89 -167 -31 -16 -74 -43 -95 -60 -101
-77 -254 -257 -374 -440 -85 -129 -120 -196 -167 -320 -19 -49 -50 -124 -69
-166 l-36 -76 348 -584 c190 -321 348 -585 349 -587 1 -1 44 28 96 64 608 429
1044 1101 1183 1822 44 228 51 306 51 572 0 266 -7 344 -51 572 -85 442 -300
904 -587 1261 -232 288 -524 537 -842 716 -326 185 -640 292 -1030 352 -150
24 -541 34 -690 18z m336 -305 c23 -25 24 -30 24 -184 0 -154 -1 -159 -24
-184 -18 -19 -35 -26 -61 -26 -26 0 -43 7 -61 26 -23 25 -24 30 -24 184 0 154
1 159 24 184 18 19 35 26 61 26 26 0 43 -7 61 -26z m1273 -335 c44 -35 36 -76
-40 -209 -36 -63 -77 -125 -90 -137 -52 -47 -134 -13 -134 54 0 41 127 272
163 298 30 21 70 19 101 -6z m946 -947 c24 -30 26 -69 5 -99 -26 -36 -257
-163 -298 -163 -68 0 -104 92 -54 137 25 23 203 128 249 147 39 17 74 9 98
-22z m334 -1271 c36 -34 36 -88 0 -122 -25 -23 -30 -24 -184 -24 -154 0 -159
1 -184 24 -47 44 -29 120 34 144 8 4 81 5 162 4 140 -2 148 -3 172 -26z m-468
-1202 c68 -39 131 -80 139 -92 22 -31 19 -72 -7 -102 -38 -43 -72 -37 -205 40
-65 37 -128 77 -140 88 -29 26 -30 75 -2 111 35 44 74 36 215 -45z"/>
<path d="M1757 5856 c-142 -107 -267 -217 -374 -330 -1217 -1280 -1048 -3310
365 -4375 133 -101 275 -187 452 -275 305 -151 585 -237 950 -288 61 -8 190
-13 360 -12 218 0 289 4 400 21 296 46 533 115 789 229 80 36 149 68 153 72 6
6 -608 1051 -632 1076 -4 4 -32 -10 -62 -33 -157 -118 -403 -187 -708 -198
-352 -13 -641 63 -827 217 -114 95 -211 246 -247 386 -9 34 -38 277 -66 540
-27 264 -75 686 -105 939 -64 524 -67 567 -34 625 54 95 175 116 251 43 42
-40 60 -102 132 -439 63 -292 68 -310 96 -336 18 -17 42 -28 58 -28 38 0 90
35 98 66 4 14 -1 166 -10 337 l-17 311 -452 760 c-249 418 -456 761 -462 763
-5 1 -54 -31 -108 -71z m-311 -1071 c55 -32 109 -67 122 -78 49 -45 13 -137
-55 -137 -41 0 -272 127 -298 163 -21 30 -19 70 5 100 39 49 71 42 226 -48z
m-192 -1224 c36 -34 36 -88 0 -122 -25 -23 -30 -24 -184 -24 -154 0 -159 1
-184 24 -47 44 -29 120 34 144 8 4 81 5 162 4 140 -2 148 -3 172 -26z m315
-1157 c27 -35 27 -77 -1 -108 -39 -41 -254 -159 -291 -158 -63 2 -99 82 -59
131 9 12 71 53 137 91 138 80 179 88 214 44z m835 -835 c44 -35 36 -74 -45
-215 -39 -68 -80 -131 -92 -139 -31 -22 -72 -19 -102 8 -43 37 -37 71 40 204
37 65 77 128 88 141 26 28 75 29 111 1z m1157 -315 c23 -25 24 -30 24 -184 0
-154 -1 -159 -24 -184 -18 -19 -35 -26 -61 -26 -26 0 -43 7 -61 26 -23 25 -24
30 -24 184 0 154 1 159 24 184 18 19 35 26 61 26 26 0 43 -7 61 -26z"/>
</g>
</svg>
