<?xml version="1.0" encoding="UTF-8" standalone="no"?>
<svg
   xmlns:dc="http://purl.org/dc/elements/1.1/"
   xmlns:cc="http://creativecommons.org/ns#"
   xmlns:rdf="http://www.w3.org/1999/02/22-rdf-syntax-ns#"
   xmlns:svg="http://www.w3.org/2000/svg"
   xmlns="http://www.w3.org/2000/svg"
   xmlns:sodipodi="http://sodipodi.sourceforge.net/DTD/sodipodi-0.dtd"
   xmlns:inkscape="http://www.inkscape.org/namespaces/inkscape"
   height="233.33333"
   version="1.1"
   width="233.33333"
   id="svg28"
   sodipodi:docname="calendar2.svg"
   inkscape:version="1.0.2 (1.0.2+r75+1)"
   inkscape:export-filename="/home/sultanofcardio/Repositories/curfewja/public/calendar2.png"
   inkscape:export-xdpi="188.42999"
   inkscape:export-ydpi="188.42999">
  <metadata
     id="metadata34">
    <rdf:RDF>
      <cc:Work
         rdf:about="">
        <dc:format>image/svg+xml</dc:format>
        <dc:type
           rdf:resource="http://purl.org/dc/dcmitype/StillImage" />
        <dc:title></dc:title>
      </cc:Work>
    </rdf:RDF>
  </metadata>
  <defs
     id="defs32" />
  <sodipodi:namedview
     pagecolor="#ffffff"
     bordercolor="#666666"
     borderopacity="1"
     objecttolerance="10"
     gridtolerance="10"
     guidetolerance="10"
     inkscape:pageopacity="0"
     inkscape:pageshadow="2"
     inkscape:window-width="2111"
     inkscape:window-height="1479"
     id="namedview30"
     showgrid="false"
     inkscape:zoom="2.625"
     inkscape:cx="15.738588"
     inkscape:cy="86.149752"
     inkscape:window-x="26"
     inkscape:window-y="23"
     inkscape:window-maximized="0"
     inkscape:current-layer="g26"
     inkscape:document-rotation="0"
     fit-margin-top="0"
     fit-margin-left="0"
     fit-margin-right="0"
     fit-margin-bottom="0" />
  <g
     transform="translate(-3,-1029.3997)"
     id="g26">
    <g
       id="g852"
       transform="matrix(11.111111,0,0,11.111111,-12.306547,-10408.378)">
      <path
         d="m 5,1032.4 c -1.1046,0 -2,0.9 -2,2 v 14 c 0,1.1 0.8954,2 2,2 h 6 2 6 c 1.105,0 2,-0.9 2,-2 v -14 c 0,-1.1 -0.895,-2 -2,-2 h -6 -2 z"
         fill="#bdc3c7"
         id="path2"
         style="fill:#0286e5;fill-opacity:1" />
      <path
         d="M 5,3 C 3.8954,3 3,3.8954 3,5 v 14 c 0,1.105 0.8954,2 2,2 h 6 2 6 c 1.105,0 2,-0.895 2,-2 V 5 C 21,3.8954 20.105,3 19,3 h -6 -2 z"
         fill="#ecf0f1"
         transform="translate(0,1028.4)"
         id="path4"
         style="fill:#9acdff;fill-opacity:1" />
      <path
         d="m 5,1031.4 c -1.1046,0 -2,0.9 -2,2 v 3 h 18 v -3 c 0,-1.1 -0.895,-2 -2,-2 h -6 -2 z"
         fill="#e74c3c"
         id="path6"
         style="fill:#e34d4d;fill-opacity:1" />
      <path
         d="m 7,5.5 a 1.5,1.5 0 1 1 -3,0 1.5,1.5 0 1 1 3,0 z"
         fill="#c0392b"
         transform="translate(0.5,1028.4)"
         id="path8"
         style="fill:#ae2727;fill-opacity:1" />
      <path
         d="M 6,1 C 5.4477,1 5,1.4477 5,2 V 5 C 5,5.5523 5.4477,6 6,6 6.5523,6 7,5.5523 7,5 V 2 C 7,1.4477 6.5523,1 6,1 Z"
         fill="#bdc3c7"
         transform="translate(0,1028.4)"
         id="path10" />
      <path
         d="m 7,5.5 a 1.5,1.5 0 1 1 -3,0 1.5,1.5 0 1 1 3,0 z"
         fill="#c0392b"
         transform="translate(12.5,1028.4)"
         id="path12"
         style="fill:#ae2727;fill-opacity:1" />
      <path
         d="m 18,1029.4 c -0.552,0 -1,0.4 -1,1 v 3 c 0,0.5 0.448,1 1,1 0.552,0 1,-0.5 1,-1 v -3 c 0,-0.6 -0.448,-1 -1,-1 z"
         id="path14"
         style="fill:#bdc3c7" />
      <path
         d="m 5,1039.4 v 2 h 2 v -2 z m 3,0 v 2 h 2 v -2 z m 3,0 v 2 h 2 v -2 z m 3,0 v 2 h 2 v -2 z m 3,0 v 2 h 2 v -2 z"
         id="path16"
         style="fill:#0286e5;fill-opacity:1" />
      <path
         d="m 5,1042.4 v 2 h 2 v -2 z m 3,0 v 2 h 2 v -2 z m 3,0 v 2 h 2 v -2 z m 3,0 v 2 h 2 v -2 z m 3,0 v 2 h 2 v -2 z"
         id="path18"
         style="fill:#0286e5;fill-opacity:1" />
      <path
         d="m 5,1045.4 v 2 h 2 v -2 z m 3,0 v 2 h 2 v -2 z m 3,0 v 2 h 2 v -2 z m 3,0 v 2 h 2 v -2 z m 3,0 v 2 h 2 v -2 z"
         id="path20"
         style="fill:#0286e5;fill-opacity:1" />
      <rect
         fill="#c0392b"
         height="1"
         transform="translate(0,1028.4)"
         width="18"
         x="3"
         y="8"
         id="rect24"
         style="fill:#ae2727;fill-opacity:1" />
    </g>
  </g>
</svg>
