<svg width="1024" height="1024" viewBox="0 0 1024 1024" fill="none" xmlns="http://www.w3.org/2000/svg">
<path fill-rule="evenodd" clip-rule="evenodd" d="M874.042 149.96C781.39 57.3078 653.385 0.000146866 512 0.000146866C370.615 0.000146866 242.612 57.3078 149.96 149.96C57.3087 242.613 0 370.615 0 512C0 653.387 57.3087 781.39 149.96 874.041C242.612 966.693 370.615 1024 512 1024C653.385 1024 781.39 966.693 874.042 874.041C966.692 781.39 1024 653.387 1024 512C1024 370.615 966.692 242.613 874.042 149.96Z" fill="#E34D4D"/>
<path fill-rule="evenodd" clip-rule="evenodd" d="M830.209 193.791C748.773 112.358 636.27 61.9879 512 61.9879C387.732 61.9879 275.226 112.358 193.791 193.791C112.357 275.226 61.9863 387.732 61.9863 512C61.9863 636.268 112.357 748.774 193.791 830.209C275.226 911.644 387.732 962.014 512 962.014C636.27 962.014 748.773 911.644 830.209 830.209C911.644 748.774 962.015 636.268 962.015 512C962.015 387.732 911.644 275.226 830.209 193.791Z" fill="#E34D4D"/>
<path fill-rule="evenodd" clip-rule="evenodd" d="M815.154 208.848C737.569 131.266 630.389 83.2791 512 83.2791C393.61 83.2791 286.43 131.266 208.847 208.848C131.266 286.43 83.2783 393.613 83.2783 512C83.2783 630.39 131.266 737.572 208.847 815.152C286.43 892.735 393.61 940.721 512 940.721C630.389 940.721 737.569 892.735 815.154 815.152C892.736 737.572 940.72 630.39 940.72 512C940.72 393.613 892.736 286.43 815.154 208.848" fill="#012540"/>
<path fill-rule="evenodd" clip-rule="evenodd" d="M836.512 512C836.512 505.331 841.919 499.922 848.59 499.922H886.45C893.121 499.922 898.531 505.331 898.531 512C898.531 518.671 893.121 524.081 886.45 524.081H848.59C841.919 524.081 836.512 518.671 836.512 512Z" fill="white"/>
<path fill-rule="evenodd" clip-rule="evenodd" d="M512 836.51C518.671 836.51 524.081 841.92 524.081 848.588V886.452C524.081 893.12 518.671 898.53 512 898.53C505.332 898.53 499.922 893.12 499.922 886.452V848.588C499.922 841.92 505.332 836.51 512 836.51" fill="white"/>
<path fill-rule="evenodd" clip-rule="evenodd" d="M137.551 499.922H175.412C182.083 499.922 187.49 505.331 187.49 512C187.49 518.671 182.083 524.081 175.412 524.081H137.551C130.879 524.081 125.472 518.671 125.472 512C125.472 505.331 130.879 499.922 137.551 499.922Z" fill="white"/>
<path fill-rule="evenodd" clip-rule="evenodd" d="M512 125.472C518.671 125.472 524.081 130.881 524.081 137.55V175.413C524.081 182.084 518.671 187.491 512 187.491C505.332 187.491 499.922 182.084 499.922 175.413V137.55C499.922 130.881 505.332 125.472 512 125.472Z" fill="white"/>
<path fill-rule="evenodd" clip-rule="evenodd" d="M793.068 349.745C789.731 343.988 791.696 336.614 797.456 333.279L830.243 314.348C836.003 311.011 843.375 312.978 846.712 318.736C850.046 324.496 848.082 331.868 842.324 335.205L809.534 354.136C803.774 357.47 796.402 355.505 793.068 349.745Z" fill="white"/>
<path fill-rule="evenodd" clip-rule="evenodd" d="M797.456 690.723C791.696 687.389 789.731 680.014 793.068 674.254C796.402 668.497 803.774 666.53 809.534 669.867L842.324 688.798C848.082 692.132 850.046 699.507 846.712 705.264C843.375 711.024 836.003 712.989 830.243 709.652L797.456 690.723" fill="white"/>
<path fill-rule="evenodd" clip-rule="evenodd" d="M674.254 793.067C680.014 789.73 687.386 791.695 690.72 797.454L709.654 830.245C712.988 836.004 711.021 843.377 705.266 846.711C699.504 850.047 692.134 848.082 688.797 842.323L669.866 809.535C666.532 803.777 668.497 796.402 674.254 793.067" fill="white"/>
<path fill-rule="evenodd" clip-rule="evenodd" d="M333.279 797.454C336.616 791.695 343.985 789.73 349.748 793.067C355.505 796.402 357.47 803.777 354.135 809.535L335.204 842.323C331.867 848.082 324.495 850.047 318.735 846.711C312.978 843.377 311.013 836.004 314.348 830.245L333.279 797.454Z" fill="white"/>
<path fill-rule="evenodd" clip-rule="evenodd" d="M230.935 674.254C234.269 680.014 232.304 687.389 226.545 690.723L193.757 709.652C187.998 712.989 180.624 711.024 177.29 705.264C173.954 699.507 175.919 692.132 181.678 688.798L214.467 669.867C220.226 666.53 227.598 668.497 230.935 674.254" fill="white"/>
<path fill-rule="evenodd" clip-rule="evenodd" d="M226.545 333.279C232.304 336.614 234.269 343.988 230.935 349.745C227.598 355.505 220.226 357.47 214.467 354.136L181.678 335.205C175.919 331.868 173.954 324.496 177.29 318.736C180.624 312.978 187.998 311.011 193.757 314.348L226.545 333.279" fill="white"/>
<path fill-rule="evenodd" clip-rule="evenodd" d="M349.748 230.935C343.985 234.272 336.616 232.307 333.279 226.547L314.348 193.757C311.013 187.997 312.978 180.625 318.735 177.29C324.495 173.954 331.867 175.921 335.204 181.678L354.135 214.466C357.47 220.228 355.505 227.6 349.748 230.935Z" fill="white"/>
<path fill-rule="evenodd" clip-rule="evenodd" d="M690.72 226.547C687.386 232.307 680.014 234.272 674.254 230.935C668.497 227.6 666.532 220.228 669.866 214.466L688.797 181.678C692.134 175.921 699.504 173.954 705.266 177.29C711.021 180.625 712.988 187.997 709.654 193.757L690.72 226.547" fill="white"/>
<path d="M492.441 769.402C441.641 769.402 402.625 756.382 376.497 730.739C351.604 706.288 346.043 677.379 344.807 666.036C340.747 628.962 331.655 538.837 331.566 537.954L314.53 396.41C312.764 385.156 314.839 375.49 320.267 368.958C324.681 363.662 331.257 360.705 339.29 360.528H339.996C347.897 360.528 359.107 363.573 364.712 389.79L382.543 472.765C384 479.474 390.046 484.373 396.887 484.373C397.329 484.373 397.726 484.373 398.167 484.329C406.112 483.623 412.026 476.826 411.584 468.881C409.863 438.781 404.302 339.166 404.302 321.512C404.302 291.985 416.704 287.527 427.473 286.954C428.003 286.91 428.533 286.91 429.062 286.91C451.616 286.91 454.705 314.892 455.102 320.541C456.426 339.387 467.549 470.117 467.637 471.441C468.078 479.165 474.39 485.388 481.981 485.388H482.731C490.588 484.991 496.59 478.415 496.59 470.426L501.004 287.218C501.004 270.623 509.963 253.94 527.044 253.94C528.456 253.94 529.957 254.072 531.457 254.293C547.258 256.721 552.907 273.448 552.907 288.278L557.321 473.163C557.321 478.812 561.779 483.49 567.428 483.667C573.122 483.667 577.535 479.562 578.109 474.089L597.44 316.392C598.941 301.077 607.592 285.63 623.525 285.276H624.231C631.822 285.276 638.045 287.925 642.768 293.089C648.859 299.797 651.683 310.213 650.58 321.689C650.447 323.542 636.368 498.452 632.043 545.722C631.646 549.915 632.97 553.887 635.794 556.932C638.619 560.022 642.591 561.787 646.74 561.787C650.227 561.787 653.537 560.551 656.229 558.212C663.688 551.724 672.03 541.088 680.063 530.804C689.728 518.446 701.777 503.043 708.442 501.101C716.342 498.806 724.198 497.658 731.922 497.658C745.119 497.658 756.109 501.145 761.361 506.971C764.759 510.722 766.613 522.639 763.921 532.393C762.994 535.703 760.743 541.529 755.932 543.074C726.493 552.298 682.622 613.956 666.292 645.91C663.423 651.56 660.952 658.224 658.083 665.904C642.68 706.994 619.464 769.402 492.441 769.402V769.402Z" fill="url(#paint0_radial)"/>
<line x1="272.191" y1="114.78" x2="747.191" y2="913.78" stroke="#E34D4D" stroke-width="40"/>
<defs>
<radialGradient id="paint0_radial" cx="0" cy="0" r="1" gradientUnits="userSpaceOnUse" gradientTransform="translate(504.327 375.689) scale(408.653)">
<stop offset="0.358" stop-color="#BA8D68"/>
<stop offset="0.872" stop-color="#A47B62"/>
</radialGradient>
</defs>
</svg>
